%FSLAX25Y25*%
%MOIN*%
G70*
G01*
G75*
G04 Layer_Physical_Order=2*
G04 Layer_Color=16711680*
%ADD10R,0.05512X0.04724*%
%ADD11R,0.05512X0.05512*%
%ADD12R,0.05512X0.05906*%
%ADD13R,0.03543X0.02756*%
%ADD14C,0.02500*%
%ADD15C,0.01000*%
%ADD16C,0.16000*%
%ADD17R,0.05906X0.05906*%
%ADD18C,0.05906*%
%ADD19C,0.05512*%
%ADD20R,0.05906X0.05906*%
%ADD21C,0.04724*%
%ADD22C,0.12992*%
D14*
X11000Y11000D02*
X93500D01*
X115421Y32921D01*
X278079Y32421D02*
X359579D01*
X379000Y13000D01*
X115421Y32921D02*
X125264D01*
X135500Y43157D01*
X191000Y89000D02*
X203000D01*
X229657Y62343D01*
X258000D01*
X268236Y72579D01*
X278079D01*
D15*
X135500Y53000D02*
X139000Y49500D01*
X167500D01*
X184200Y14200D02*
X191000Y21000D01*
X172800Y14200D02*
X184200D01*
X167500Y19500D02*
X172800Y14200D01*
X191000Y21000D02*
X195500Y25500D01*
X231500D01*
X236000Y21000D01*
X231500Y46500D02*
X236000Y51000D01*
X205500Y46500D02*
X231500D01*
X201000Y51000D02*
X205500Y46500D01*
D16*
X379000Y13000D02*
D03*
X378000Y140000D02*
D03*
X11500D02*
D03*
X11000Y11000D02*
D03*
D17*
X181000Y21000D02*
D03*
D18*
X191000D02*
D03*
X201000D02*
D03*
X211000D02*
D03*
X181000Y51000D02*
D03*
X191000D02*
D03*
X201000D02*
D03*
X211000D02*
D03*
X197500Y99500D02*
D03*
X187500D02*
D03*
X258000Y62343D02*
D03*
X135500Y43157D02*
D03*
D19*
X167500Y19500D02*
D03*
Y49500D02*
D03*
X236000Y51000D02*
D03*
Y21000D02*
D03*
X191500Y7500D02*
D03*
X161500D02*
D03*
D20*
X207500Y99500D02*
D03*
X258000Y52500D02*
D03*
X135500Y53000D02*
D03*
D21*
X181000Y89000D02*
D03*
X191000D02*
D03*
X213000D02*
D03*
X203000D02*
D03*
D22*
X278079Y32421D02*
D03*
Y72579D02*
D03*
X115421Y73079D02*
D03*
Y32921D02*
D03*
M02*
