%FSLAX25Y25*%
%MOIN*%
G70*
G01*
G75*
G04 Layer_Physical_Order=1*
G04 Layer_Color=255*
%ADD10R,0.05512X0.04724*%
%ADD11R,0.05512X0.05512*%
%ADD12R,0.05512X0.05906*%
%ADD13R,0.03543X0.02756*%
%ADD14C,0.02500*%
%ADD15C,0.01000*%
%ADD16C,0.16000*%
%ADD17R,0.05906X0.05906*%
%ADD18C,0.05906*%
%ADD19C,0.05512*%
%ADD20R,0.05906X0.05906*%
%ADD21C,0.04724*%
%ADD22C,0.12992*%
D10*
X218000Y7957D02*
D03*
Y15043D02*
D03*
D11*
X187043Y78000D02*
D03*
X179957D02*
D03*
X208543D02*
D03*
X201457D02*
D03*
D12*
X191937Y63500D02*
D03*
X184063D02*
D03*
D13*
X240500Y69547D02*
D03*
Y75453D02*
D03*
D14*
X379000Y13000D02*
Y140000D01*
X378000D02*
X379000D01*
X11500Y76000D02*
Y140000D01*
X11000Y75500D02*
X11500Y76000D01*
X11000Y11000D02*
Y75500D01*
X115421Y32921D02*
Y73079D01*
X135500Y33500D02*
Y43157D01*
X155843Y63500D01*
X184063Y69200D02*
X187043Y72180D01*
X201457Y82700D02*
X203000Y84243D01*
X245800Y30500D02*
X263300Y48000D01*
X230900Y25400D02*
X236000Y30500D01*
X197500Y94500D02*
Y99500D01*
Y94500D02*
X203000Y89000D01*
X135500Y33500D02*
X161500Y7500D01*
X258000Y62343D02*
X263300Y57043D01*
Y48000D02*
Y57043D01*
X236000Y30500D02*
X245800D01*
X230900Y16000D02*
Y25400D01*
X222857Y7957D02*
X230900Y16000D01*
X218000Y7957D02*
X222857D01*
X155843Y63500D02*
X184063D01*
X278079Y32421D02*
Y72579D01*
X187043Y72180D02*
Y78000D01*
X184063Y63500D02*
Y69200D01*
X187043Y78000D02*
X201457D01*
X203000Y84243D02*
Y89000D01*
X201457Y78000D02*
Y82700D01*
D15*
X248000Y61300D02*
Y62500D01*
X253200Y57300D02*
X257000D01*
X252000D02*
X253200D01*
X258000Y52500D01*
X248000Y62500D02*
X253200Y57300D01*
X248000Y62500D02*
Y67953D01*
X191000Y51000D02*
Y56700D01*
X191937Y57637D02*
Y63500D01*
X204043D02*
X208543Y68000D01*
Y78000D01*
X213000Y82457D01*
X207500Y94500D02*
X213000Y89000D01*
X207500Y94500D02*
Y99500D01*
X179957Y82900D02*
X181000Y83943D01*
Y89000D02*
X187500Y95500D01*
Y99500D01*
X216900Y26900D02*
Y100000D01*
X211000Y21000D02*
X216957Y15043D01*
X218000D01*
X240500Y55500D02*
Y69547D01*
X201000Y17000D02*
Y21000D01*
X213000Y82457D02*
Y89000D01*
X236000Y51000D02*
X240500Y55500D01*
X191500Y7500D02*
X201000Y17000D01*
X187500Y99500D02*
X192900Y104900D01*
X212000D01*
X216900Y100000D01*
X211000Y21000D02*
X216900Y26900D01*
X191937Y63500D02*
X204043D01*
X258000Y52500D02*
Y56300D01*
X257000Y57300D02*
X258000Y56300D01*
X248000Y61300D02*
X252000Y57300D01*
X240500Y75453D02*
X248000Y67953D01*
X191000Y56700D02*
X191937Y57637D01*
X181000Y83943D02*
Y89000D01*
X179957Y78000D02*
Y82900D01*
D16*
X379000Y13000D02*
D03*
X378000Y140000D02*
D03*
X11500D02*
D03*
X11000Y11000D02*
D03*
D17*
X181000Y21000D02*
D03*
D18*
X191000D02*
D03*
X201000D02*
D03*
X211000D02*
D03*
X181000Y51000D02*
D03*
X191000D02*
D03*
X201000D02*
D03*
X211000D02*
D03*
X197500Y99500D02*
D03*
X187500D02*
D03*
X258000Y62343D02*
D03*
X135500Y43157D02*
D03*
D19*
X167500Y19500D02*
D03*
Y49500D02*
D03*
X236000Y51000D02*
D03*
Y21000D02*
D03*
X191500Y7500D02*
D03*
X161500D02*
D03*
D20*
X207500Y99500D02*
D03*
X258000Y52500D02*
D03*
X135500Y53000D02*
D03*
D21*
X181000Y89000D02*
D03*
X191000D02*
D03*
X213000D02*
D03*
X203000D02*
D03*
D22*
X278079Y32421D02*
D03*
Y72579D02*
D03*
X115421Y73079D02*
D03*
Y32921D02*
D03*
M02*
