M48
;Layer_Color=9474304
;FILE_FORMAT=2:5
INCH,LZ
;TYPE=PLATED
T1F00S00C0.02756
T2F00S00C0.03346
T3F00S00C0.03543
T4F00S00C0.07874
T5F00S00C0.12500
%
T01
X0213Y0089
X0203
X0191
X0181
T02
X01615Y00075
X01675Y00195
Y00495
X01915Y00075
X0236Y0021
Y0051
T03
X01355Y0043157
Y0053
X0181Y0051
X0191
X0201
X0211
Y0021
X0201
X0191
X0181
X0258Y00525
Y0062343
X02075Y00995
X01975
X01875
T04
X0115421Y0032921
X0278079Y0032421
Y0072579
X0115421Y0073079
T05
X0011Y0011
X0379Y0013
X0378Y014
X00115
M30
