%FSLAX25Y25*%
%MOIN*%
G70*
G01*
G75*
G04 Layer_Color=16711935*
%ADD10R,0.05512X0.04724*%
%ADD11R,0.05512X0.05512*%
%ADD12R,0.05512X0.05906*%
%ADD13R,0.03543X0.02756*%
%ADD14C,0.02500*%
%ADD15C,0.01000*%
%ADD16C,0.16000*%
%ADD17R,0.05906X0.05906*%
%ADD18C,0.05906*%
%ADD19C,0.05512*%
%ADD20R,0.05906X0.05906*%
%ADD21C,0.04724*%
%ADD22C,0.12992*%
%ADD23C,0.00787*%
%ADD24C,0.00984*%
%ADD25C,0.02362*%
%ADD26C,0.00098*%
%ADD27C,0.00098*%
%ADD28R,0.06312X0.05524*%
%ADD29R,0.06312X0.06312*%
%ADD30R,0.06312X0.06706*%
%ADD31R,0.04343X0.03556*%
%ADD32C,0.16800*%
%ADD33R,0.06706X0.06706*%
%ADD34C,0.06706*%
%ADD35C,0.06312*%
%ADD36R,0.06706X0.06706*%
%ADD37C,0.05524*%
%ADD38C,0.13792*%
%ADD39C,0.00394*%
D39*
X181236Y25370D02*
G03*
X181236Y25370I-1969J0D01*
G01*
X215244Y7268D02*
X220756D01*
X215244Y15732D02*
X220756D01*
X215244Y7268D02*
Y15732D01*
X220756Y7268D02*
Y15732D01*
X175724Y21827D02*
X216276D01*
X175724Y50173D02*
X216276D01*
X175724Y21827D02*
Y50173D01*
X216276Y21827D02*
Y50173D01*
X189209Y74752D02*
Y81248D01*
X177791Y74752D02*
Y81248D01*
Y74752D02*
X189209D01*
X177791Y81248D02*
X189209D01*
X192232Y60744D02*
Y66256D01*
X183768Y60744D02*
Y66256D01*
Y60744D02*
X192232D01*
X183768Y66256D02*
X192232D01*
X210709Y74752D02*
Y81248D01*
X199291Y74752D02*
Y81248D01*
Y74752D02*
X210709D01*
X199291Y81248D02*
X210709D01*
X238630Y69154D02*
X242370D01*
X238630Y75846D02*
X242370D01*
X238630Y69154D02*
Y75846D01*
X242370Y69154D02*
Y75846D01*
M02*
