%FSLAX25Y25*%
%MOIN*%
G70*
G01*
G75*
%ADD10R,0.05512X0.04724*%
%ADD11R,0.05512X0.05512*%
%ADD12R,0.05512X0.05906*%
%ADD13R,0.03543X0.02756*%
%ADD14C,0.02500*%
%ADD15C,0.01000*%
%ADD16C,0.16000*%
%ADD17R,0.05906X0.05906*%
%ADD18C,0.05906*%
%ADD19C,0.05512*%
%ADD20R,0.05906X0.05906*%
%ADD21C,0.04724*%
%ADD22C,0.12992*%
D10*
X218000Y7957D02*
D03*
Y15043D02*
D03*
D11*
X187043Y78000D02*
D03*
X179957D02*
D03*
X208543D02*
D03*
X201457D02*
D03*
D12*
X191937Y63500D02*
D03*
X184063D02*
D03*
D13*
X240500Y69547D02*
D03*
Y75453D02*
D03*
D16*
X379000Y13000D02*
D03*
X378000Y140000D02*
D03*
X11500D02*
D03*
X11000Y11000D02*
D03*
D17*
X181000Y21000D02*
D03*
D18*
X191000D02*
D03*
X201000D02*
D03*
X211000D02*
D03*
X181000Y51000D02*
D03*
X191000D02*
D03*
X201000D02*
D03*
X211000D02*
D03*
X197500Y99500D02*
D03*
X187500D02*
D03*
X258000Y62343D02*
D03*
X135500Y43157D02*
D03*
D19*
X167500Y19500D02*
D03*
Y49500D02*
D03*
X236000Y51000D02*
D03*
Y21000D02*
D03*
X191500Y7500D02*
D03*
X161500D02*
D03*
D20*
X207500Y99500D02*
D03*
X258000Y52500D02*
D03*
X135500Y53000D02*
D03*
D21*
X181000Y89000D02*
D03*
X191000D02*
D03*
X213000D02*
D03*
X203000D02*
D03*
D22*
X278079Y32421D02*
D03*
Y72579D02*
D03*
X115421Y73079D02*
D03*
Y32921D02*
D03*
M02*
