%FSLAX25Y25*%
%MOIN*%
G70*
G01*
G75*
G04 Layer_Color=32768*
%ADD10R,0.05512X0.04724*%
%ADD11R,0.05512X0.05512*%
%ADD12R,0.05512X0.05906*%
%ADD13R,0.03543X0.02756*%
%ADD14C,0.02500*%
%ADD15C,0.01000*%
%ADD16C,0.16000*%
%ADD17R,0.05906X0.05906*%
%ADD18C,0.05906*%
%ADD19C,0.05512*%
%ADD20R,0.05906X0.05906*%
%ADD21C,0.04724*%
%ADD22C,0.12992*%
%ADD23C,0.00787*%
%ADD24C,0.00984*%
%ADD25C,0.02362*%
%ADD26C,0.00098*%
%ADD27C,0.00098*%
%ADD28R,0.06312X0.05524*%
%ADD29R,0.06312X0.06312*%
%ADD30R,0.06312X0.06706*%
%ADD31R,0.04343X0.03556*%
%ADD32C,0.16800*%
%ADD33R,0.06706X0.06706*%
%ADD34C,0.06706*%
%ADD35C,0.06312*%
%ADD36R,0.06706X0.06706*%
%ADD37C,0.05524*%
%ADD38C,0.13792*%
%ADD39C,0.00394*%
D39*
X214260Y4610D02*
X221740D01*
X214260Y18390D02*
X221740D01*
X214260Y4610D02*
Y18390D01*
X221740Y4610D02*
Y18390D01*
X218000Y9531D02*
Y13468D01*
X216031Y11500D02*
X219968D01*
X196000Y34032D02*
Y37969D01*
X194032Y36000D02*
X197969D01*
X190193Y74850D02*
Y81150D01*
X176807Y74850D02*
Y81150D01*
Y74850D02*
X190193D01*
X176807Y81150D02*
X190193D01*
X181531Y78000D02*
X185469D01*
X183500Y76031D02*
Y79968D01*
X196661Y58579D02*
Y68421D01*
X179339Y58579D02*
Y68421D01*
Y58579D02*
X196661D01*
X179339Y68421D02*
X196661D01*
X186032Y63500D02*
X189969D01*
X188000Y61531D02*
Y65469D01*
X211693Y74850D02*
Y81150D01*
X198307Y74850D02*
Y81150D01*
Y74850D02*
X211693D01*
X198307Y81150D02*
X211693D01*
X203031Y78000D02*
X206969D01*
X205000Y76031D02*
Y79968D01*
X238335Y67776D02*
X242665D01*
X238335Y77224D02*
X242665D01*
X238335Y67776D02*
Y77224D01*
X242665Y67776D02*
Y77224D01*
X240500Y70630D02*
Y74370D01*
X238630Y72500D02*
X242370D01*
M02*
