M48
;Layer_Color=9474304
;FILE_FORMAT=2:5
INCH,LZ
;TYPE=PLATED
T1F00S00C0.02756
T2F00S00C0.02800
T3F00S00C0.03346
T4F00S00C0.03543
%
T01
X0117Y0133
X0147
T02
X01965Y01285
X01941Y01543
X0226031Y01504
X0182Y01772
X0201Y0239
T03
X01815Y0109
X02115
X02345Y0126
X02565
Y0156
X02345
X02435Y0191551
Y0221551
X0176Y0225551
X01605
Y0195551
X0176
X01435
X01275
Y0225551
X01435
T04
X01295Y0112
X01395
X0284Y01355
Y01455
X02715Y0201
Y0206
Y0211
X02565Y0221354
X023Y02195
Y02095
Y01995
Y01895
X02565Y0190646
X02Y01895
Y01995
Y02095
Y02195
M30
