%FSLAX25Y25*%
%MOIN*%
G70*
G01*
G75*
G04 Layer_Physical_Order=2*
G04 Layer_Color=16711680*
%ADD10C,0.02500*%
%ADD11R,0.05906X0.05906*%
%ADD12O,0.08661X0.02362*%
%ADD13R,0.02362X0.01969*%
%ADD14C,0.01000*%
%ADD15C,0.05512*%
%ADD16C,0.04724*%
%ADD17O,0.07874X0.03937*%
%ADD18O,0.07874X0.03937*%
%ADD19R,0.05906X0.05906*%
%ADD20C,0.05906*%
%ADD21C,0.05000*%
G36*
X294971Y103029D02*
X106529D01*
Y250471D01*
X294971D01*
Y103029D01*
D02*
G37*
%LPC*%
G36*
X287953Y139453D02*
X280047D01*
Y131547D01*
X287953D01*
Y139453D01*
D02*
G37*
G36*
X150325Y132500D02*
X147500D01*
Y129675D01*
X147878Y129724D01*
X148696Y130063D01*
X149398Y130602D01*
X149937Y131304D01*
X150276Y132122D01*
X150325Y132500D01*
D02*
G37*
G36*
X146500D02*
X143675D01*
X143724Y132122D01*
X144063Y131304D01*
X144602Y130602D01*
X145304Y130063D01*
X146122Y129724D01*
X146500Y129675D01*
Y132500D01*
D02*
G37*
G36*
Y136325D02*
X146122Y136276D01*
X145304Y135937D01*
X144602Y135398D01*
X144063Y134696D01*
X143724Y133878D01*
X143675Y133500D01*
X146500D01*
Y136325D01*
D02*
G37*
G36*
X287921Y145000D02*
X284500D01*
Y141579D01*
X285032Y141649D01*
X285993Y142047D01*
X286819Y142681D01*
X287453Y143507D01*
X287851Y144468D01*
X287921Y145000D01*
D02*
G37*
G36*
X283500D02*
X280079D01*
X280149Y144468D01*
X280547Y143507D01*
X281181Y142681D01*
X282007Y142047D01*
X282968Y141649D01*
X283500Y141579D01*
Y145000D01*
D02*
G37*
G36*
X147500Y136325D02*
Y133500D01*
X150325D01*
X150276Y133878D01*
X149937Y134696D01*
X149398Y135398D01*
X148696Y135937D01*
X147878Y136276D01*
X147500Y136325D01*
D02*
G37*
G36*
X256500Y129788D02*
X255520Y129659D01*
X254606Y129281D01*
X253821Y128679D01*
X253219Y127894D01*
X252841Y126980D01*
X252712Y126000D01*
X252841Y125020D01*
X253219Y124106D01*
X253821Y123321D01*
X254606Y122719D01*
X255520Y122341D01*
X256500Y122212D01*
X257481Y122341D01*
X258394Y122719D01*
X259179Y123321D01*
X259781Y124106D01*
X260159Y125020D01*
X260288Y126000D01*
X260159Y126980D01*
X259781Y127894D01*
X259179Y128679D01*
X258394Y129281D01*
X257481Y129659D01*
X256500Y129788D01*
D02*
G37*
G36*
X139000Y111500D02*
X135579D01*
X135649Y110968D01*
X136047Y110007D01*
X136681Y109181D01*
X137507Y108547D01*
X138468Y108149D01*
X139000Y108079D01*
Y111500D01*
D02*
G37*
G36*
X133453Y115953D02*
X125547D01*
Y108047D01*
X133453D01*
Y115953D01*
D02*
G37*
G36*
X185222Y108500D02*
X182000D01*
Y105278D01*
X182481Y105341D01*
X183394Y105719D01*
X184179Y106321D01*
X184781Y107106D01*
X185159Y108019D01*
X185222Y108500D01*
D02*
G37*
G36*
X182000Y112723D02*
Y109500D01*
X185222D01*
X185159Y109980D01*
X184781Y110894D01*
X184179Y111679D01*
X183394Y112281D01*
X182481Y112659D01*
X182000Y112723D01*
D02*
G37*
G36*
X140000Y115921D02*
Y112500D01*
X143421D01*
X143351Y113032D01*
X142953Y113993D01*
X142319Y114819D01*
X141493Y115453D01*
X140532Y115851D01*
X140000Y115921D01*
D02*
G37*
G36*
X139000D02*
X138468Y115851D01*
X137507Y115453D01*
X136681Y114819D01*
X136047Y113993D01*
X135649Y113032D01*
X135579Y112500D01*
X139000D01*
Y115921D01*
D02*
G37*
G36*
X181000Y112723D02*
X180519Y112659D01*
X179606Y112281D01*
X178821Y111679D01*
X178526Y111294D01*
X143773D01*
X143593Y111500D01*
X140000D01*
Y108079D01*
X140156Y108099D01*
X140878Y107378D01*
X141622Y106880D01*
X142500Y106706D01*
X178526D01*
X178821Y106321D01*
X179606Y105719D01*
X180519Y105341D01*
X181000Y105278D01*
Y109000D01*
Y112723D01*
D02*
G37*
G36*
X273468Y213994D02*
X269531D01*
X268757Y213892D01*
X268034Y213593D01*
X267414Y213117D01*
X266938Y212497D01*
X266639Y211775D01*
X266537Y211000D01*
X266639Y210225D01*
X266938Y209503D01*
X267414Y208883D01*
X267587Y208750D01*
Y208250D01*
X267414Y208117D01*
X266938Y207497D01*
X266639Y206775D01*
X266537Y206000D01*
X266639Y205225D01*
X266938Y204503D01*
X267414Y203883D01*
X267565Y203768D01*
X267404Y203294D01*
X239450D01*
X233900Y208844D01*
X233987Y209500D01*
X233851Y210532D01*
X233453Y211493D01*
X232819Y212319D01*
X231993Y212953D01*
X231032Y213351D01*
X230000Y213487D01*
X228968Y213351D01*
X228007Y212953D01*
X227181Y212319D01*
X226547Y211493D01*
X226149Y210532D01*
X226013Y209500D01*
X226099Y208844D01*
X203750Y186494D01*
X203241D01*
X203020Y186943D01*
X203453Y187507D01*
X203851Y188468D01*
X203921Y189000D01*
X200000D01*
Y189500D01*
X199500D01*
Y193421D01*
X198968Y193351D01*
X198007Y192953D01*
X197181Y192319D01*
X196778Y191794D01*
X183001D01*
X179744Y195051D01*
X176500D01*
Y191807D01*
X180429Y187878D01*
X181173Y187381D01*
X182051Y187206D01*
X196636D01*
X196901Y186781D01*
X196759Y186494D01*
X168200D01*
X167322Y186319D01*
X166578Y185822D01*
X117130Y136374D01*
X117000Y136391D01*
X116122Y136276D01*
X115304Y135937D01*
X114602Y135398D01*
X114063Y134696D01*
X113724Y133878D01*
X113609Y133000D01*
X113724Y132122D01*
X114063Y131304D01*
X114602Y130602D01*
X115304Y130063D01*
X116122Y129724D01*
X117000Y129609D01*
X117878Y129724D01*
X118696Y130063D01*
X119398Y130602D01*
X119937Y131304D01*
X120276Y132122D01*
X120391Y133000D01*
X120374Y133130D01*
X169150Y181906D01*
X204700D01*
X205578Y182080D01*
X206322Y182578D01*
X206322Y182578D01*
X206322Y182578D01*
X229344Y205599D01*
X230000Y205513D01*
X230656Y205599D01*
X236878Y199378D01*
X237622Y198881D01*
X238500Y198706D01*
X267645D01*
X268034Y198407D01*
X268757Y198108D01*
X269531Y198006D01*
X273468D01*
X274243Y198108D01*
X274966Y198407D01*
X275406Y198190D01*
Y160950D01*
X237909Y123453D01*
X237533Y123783D01*
X237781Y124106D01*
X238159Y125020D01*
X238288Y126000D01*
X238159Y126980D01*
X237781Y127894D01*
X237179Y128679D01*
X236394Y129281D01*
X235480Y129659D01*
X234500Y129788D01*
X233520Y129659D01*
X232606Y129281D01*
X231821Y128679D01*
X231526Y128294D01*
X200211D01*
X200030Y128500D01*
X199910Y129414D01*
X199557Y130265D01*
X198996Y130996D01*
X198265Y131557D01*
X197414Y131910D01*
X196500Y132030D01*
X195586Y131910D01*
X194735Y131557D01*
X194004Y130996D01*
X193443Y130265D01*
X193090Y129414D01*
X192970Y128500D01*
X193090Y127586D01*
X193443Y126735D01*
X194004Y126004D01*
X194735Y125443D01*
X195586Y125090D01*
X196500Y124970D01*
X196753Y125003D01*
X197378Y124378D01*
X197378D01*
X197378Y124378D01*
X197378Y124378D01*
Y124378D01*
X198122Y123881D01*
X199000Y123706D01*
X231526D01*
X231821Y123321D01*
X232606Y122719D01*
X233520Y122341D01*
X234500Y122212D01*
X235480Y122341D01*
X236394Y122719D01*
X236717Y122967D01*
X237047Y122591D01*
X225750Y111294D01*
X214474D01*
X214179Y111679D01*
X213394Y112281D01*
X212480Y112659D01*
X211500Y112788D01*
X210520Y112659D01*
X209606Y112281D01*
X208821Y111679D01*
X208219Y110894D01*
X207841Y109980D01*
X207712Y109000D01*
X207841Y108019D01*
X208219Y107106D01*
X208821Y106321D01*
X209606Y105719D01*
X210520Y105341D01*
X211500Y105212D01*
X212480Y105341D01*
X213394Y105719D01*
X214179Y106321D01*
X214474Y106706D01*
X226700D01*
X227578Y106880D01*
X228322Y107378D01*
X279322Y158378D01*
X279322Y158378D01*
X279322Y158378D01*
X279819Y159122D01*
X279994Y160000D01*
Y211000D01*
X279819Y211878D01*
X279322Y212622D01*
X278578Y213120D01*
X277700Y213294D01*
X275355D01*
X274966Y213593D01*
X274243Y213892D01*
X273468Y213994D01*
D02*
G37*
G36*
X201000Y242530D02*
X200086Y242410D01*
X199235Y242057D01*
X198504Y241496D01*
X197943Y240765D01*
X197590Y239914D01*
X197470Y239000D01*
X197590Y238086D01*
X197943Y237235D01*
X198504Y236504D01*
X199235Y235943D01*
X200086Y235590D01*
X201000Y235470D01*
X201914Y235590D01*
X202765Y235943D01*
X203496Y236504D01*
X203651Y236706D01*
X237904D01*
X252547Y222063D01*
Y217402D01*
X260453D01*
Y225307D01*
X255792D01*
X240477Y240622D01*
X239732Y241120D01*
X238854Y241294D01*
X203651D01*
X203496Y241496D01*
X202765Y242057D01*
X201914Y242410D01*
X201000Y242530D01*
D02*
G37*
G36*
X143500Y199339D02*
X142519Y199210D01*
X141606Y198832D01*
X140821Y198230D01*
X140526Y197845D01*
X130474D01*
X130179Y198230D01*
X129394Y198832D01*
X128481Y199210D01*
X127500Y199339D01*
X126520Y199210D01*
X125606Y198832D01*
X124821Y198230D01*
X124219Y197445D01*
X123841Y196532D01*
X123712Y195551D01*
X123841Y194571D01*
X124219Y193657D01*
X124821Y192873D01*
X125606Y192270D01*
X126520Y191892D01*
X127500Y191763D01*
X128481Y191892D01*
X129394Y192270D01*
X130179Y192873D01*
X130474Y193257D01*
X140526D01*
X140821Y192873D01*
X141606Y192270D01*
X142519Y191892D01*
X143500Y191763D01*
X144481Y191892D01*
X145394Y192270D01*
X146179Y192873D01*
X146781Y193657D01*
X147159Y194571D01*
X147288Y195551D01*
X147159Y196532D01*
X146781Y197445D01*
X146179Y198230D01*
X145394Y198832D01*
X144481Y199210D01*
X143500Y199339D01*
D02*
G37*
G36*
X200000Y203487D02*
X198968Y203351D01*
X198007Y202953D01*
X197181Y202319D01*
X196778Y201794D01*
X189650D01*
X188822Y202622D01*
X188078Y203119D01*
X187200Y203294D01*
X165949D01*
X165071Y203119D01*
X164327Y202622D01*
X160981Y199276D01*
X160500Y199339D01*
X159520Y199210D01*
X158606Y198832D01*
X157821Y198230D01*
X157219Y197445D01*
X156841Y196532D01*
X156712Y195551D01*
X156841Y194571D01*
X157219Y193657D01*
X157821Y192873D01*
X158606Y192270D01*
X159520Y191892D01*
X160500Y191763D01*
X161480Y191892D01*
X162394Y192270D01*
X163179Y192873D01*
X163781Y193657D01*
X164159Y194571D01*
X164288Y195551D01*
X164225Y196032D01*
X166899Y198706D01*
X173164D01*
X173325Y198232D01*
X173321Y198230D01*
X172719Y197445D01*
X172341Y196532D01*
X172277Y196051D01*
X179722D01*
X179659Y196532D01*
X179281Y197445D01*
X178679Y198230D01*
X178675Y198232D01*
X178836Y198706D01*
X186250D01*
X187078Y197878D01*
X187078D01*
X187078Y197878D01*
X187078Y197878D01*
Y197878D01*
X187822Y197380D01*
X188700Y197206D01*
X196778D01*
X197181Y196681D01*
X198007Y196047D01*
X198968Y195649D01*
X200000Y195513D01*
X201032Y195649D01*
X201993Y196047D01*
X202819Y196681D01*
X203453Y197507D01*
X203851Y198468D01*
X203987Y199500D01*
X203851Y200532D01*
X203453Y201493D01*
X202819Y202319D01*
X201993Y202953D01*
X201032Y203351D01*
X200000Y203487D01*
D02*
G37*
G36*
X160500Y229340D02*
X159520Y229210D01*
X158606Y228832D01*
X157821Y228230D01*
X157219Y227445D01*
X156841Y226532D01*
X156712Y225551D01*
X156841Y224571D01*
X157219Y223657D01*
X157821Y222872D01*
X158606Y222270D01*
X159520Y221892D01*
X160500Y221763D01*
X161480Y221892D01*
X162394Y222270D01*
X163179Y222872D01*
X163781Y223657D01*
X164159Y224571D01*
X164288Y225551D01*
X164159Y226532D01*
X163781Y227445D01*
X163179Y228230D01*
X162394Y228832D01*
X161480Y229210D01*
X160500Y229340D01*
D02*
G37*
G36*
X176000D02*
X175020Y229210D01*
X174106Y228832D01*
X173321Y228230D01*
X172719Y227445D01*
X172341Y226532D01*
X172212Y225551D01*
X172341Y224571D01*
X172719Y223657D01*
X173321Y222872D01*
X174106Y222270D01*
X175020Y221892D01*
X176000Y221763D01*
X176980Y221892D01*
X177894Y222270D01*
X178679Y222872D01*
X179281Y223657D01*
X179659Y224571D01*
X179788Y225551D01*
X179659Y226532D01*
X179281Y227445D01*
X178679Y228230D01*
X177894Y228832D01*
X176980Y229210D01*
X176000Y229340D01*
D02*
G37*
G36*
X143500D02*
X142519Y229210D01*
X141606Y228832D01*
X140821Y228230D01*
X140219Y227445D01*
X139841Y226532D01*
X139712Y225551D01*
X139841Y224571D01*
X140219Y223657D01*
X140821Y222872D01*
X141606Y222270D01*
X142519Y221892D01*
X143500Y221763D01*
X143981Y221826D01*
X157929Y207878D01*
X157929D01*
X157929Y207878D01*
X157929Y207878D01*
Y207878D01*
X158673Y207381D01*
X159551Y207206D01*
X196778D01*
X197181Y206681D01*
X198007Y206047D01*
X198968Y205649D01*
X200000Y205513D01*
X201032Y205649D01*
X201993Y206047D01*
X202819Y206681D01*
X203453Y207507D01*
X203851Y208468D01*
X203987Y209500D01*
X203901Y210156D01*
X216250Y222506D01*
X226759D01*
X226980Y222058D01*
X226547Y221493D01*
X226149Y220532D01*
X226013Y219500D01*
X226149Y218468D01*
X226547Y217507D01*
X227181Y216681D01*
X228007Y216047D01*
X228968Y215649D01*
X230000Y215513D01*
X231032Y215649D01*
X231993Y216047D01*
X232819Y216681D01*
X233453Y217507D01*
X233851Y218468D01*
X233987Y219500D01*
X233851Y220532D01*
X233453Y221493D01*
X233020Y222058D01*
X233241Y222506D01*
X239301D01*
X239775Y222032D01*
X239712Y221551D01*
X239841Y220571D01*
X240219Y219657D01*
X240821Y218872D01*
X241606Y218270D01*
X242519Y217892D01*
X243500Y217763D01*
X244480Y217892D01*
X245394Y218270D01*
X246179Y218872D01*
X246781Y219657D01*
X247159Y220571D01*
X247288Y221551D01*
X247159Y222532D01*
X246781Y223445D01*
X246179Y224230D01*
X245394Y224832D01*
X244480Y225210D01*
X243500Y225340D01*
X243019Y225276D01*
X241873Y226422D01*
X241129Y226920D01*
X240251Y227094D01*
X215300D01*
X214422Y226920D01*
X213678Y226422D01*
X204415Y217159D01*
X203953Y217350D01*
Y223453D01*
X196047D01*
Y215547D01*
X202150D01*
X202341Y215085D01*
X200656Y213401D01*
X200000Y213487D01*
X198968Y213351D01*
X198007Y212953D01*
X197181Y212319D01*
X196778Y211794D01*
X160501D01*
X147225Y225071D01*
X147288Y225551D01*
X147159Y226532D01*
X146781Y227445D01*
X146179Y228230D01*
X145394Y228832D01*
X144481Y229210D01*
X143500Y229340D01*
D02*
G37*
G36*
X127500D02*
X126520Y229210D01*
X125606Y228832D01*
X124821Y228230D01*
X124219Y227445D01*
X123841Y226532D01*
X123712Y225551D01*
X123841Y224571D01*
X124219Y223657D01*
X124821Y222872D01*
X125606Y222270D01*
X126520Y221892D01*
X127500Y221763D01*
X128481Y221892D01*
X129394Y222270D01*
X130179Y222872D01*
X130781Y223657D01*
X131159Y224571D01*
X131288Y225551D01*
X131159Y226532D01*
X130781Y227445D01*
X130179Y228230D01*
X129394Y228832D01*
X128481Y229210D01*
X127500Y229340D01*
D02*
G37*
G36*
X256500Y159788D02*
X255520Y159659D01*
X254606Y159281D01*
X253821Y158679D01*
X253219Y157894D01*
X252841Y156981D01*
X252712Y156000D01*
X252841Y155019D01*
X253219Y154106D01*
X253821Y153321D01*
X254606Y152719D01*
X255520Y152341D01*
X256500Y152212D01*
X257481Y152341D01*
X258394Y152719D01*
X259179Y153321D01*
X259781Y154106D01*
X260159Y155019D01*
X260288Y156000D01*
X260159Y156981D01*
X259781Y157894D01*
X259179Y158679D01*
X258394Y159281D01*
X257481Y159659D01*
X256500Y159788D01*
D02*
G37*
G36*
X182000Y180730D02*
X181086Y180610D01*
X180235Y180257D01*
X179504Y179696D01*
X178943Y178965D01*
X178590Y178114D01*
X178470Y177200D01*
X178590Y176286D01*
X178943Y175435D01*
X179504Y174704D01*
X180235Y174143D01*
X181086Y173790D01*
X182000Y173670D01*
X182253Y173703D01*
X201578Y154378D01*
X202322Y153881D01*
X203200Y153706D01*
X223813D01*
X223973Y153232D01*
X223535Y152896D01*
X223380Y152694D01*
X198950D01*
X197597Y154047D01*
X197630Y154300D01*
X197510Y155214D01*
X197157Y156065D01*
X196596Y156796D01*
X195865Y157357D01*
X195014Y157710D01*
X194100Y157830D01*
X193186Y157710D01*
X192335Y157357D01*
X191604Y156796D01*
X191043Y156065D01*
X190690Y155214D01*
X190570Y154300D01*
X190690Y153386D01*
X191043Y152535D01*
X191604Y151804D01*
X192335Y151243D01*
X193186Y150890D01*
X194100Y150770D01*
X194353Y150803D01*
X196378Y148778D01*
X196378D01*
X196378Y148778D01*
X196378Y148778D01*
Y148778D01*
X197122Y148281D01*
X198000Y148106D01*
X223380D01*
X223535Y147904D01*
X224266Y147343D01*
X225118Y146990D01*
X226031Y146870D01*
X226945Y146990D01*
X227797Y147343D01*
X228528Y147904D01*
X229089Y148635D01*
X229441Y149486D01*
X229562Y150400D01*
X229441Y151314D01*
X229089Y152165D01*
X228528Y152896D01*
X228089Y153232D01*
X228250Y153706D01*
X231526D01*
X231821Y153321D01*
X232606Y152719D01*
X233520Y152341D01*
X234500Y152212D01*
X235480Y152341D01*
X236394Y152719D01*
X237179Y153321D01*
X237781Y154106D01*
X238159Y155019D01*
X238288Y156000D01*
X238159Y156981D01*
X237781Y157894D01*
X237179Y158679D01*
X236394Y159281D01*
X235480Y159659D01*
X234500Y159788D01*
X233520Y159659D01*
X232606Y159281D01*
X231821Y158679D01*
X231526Y158294D01*
X204150D01*
X185497Y176947D01*
X185530Y177200D01*
X185410Y178114D01*
X185057Y178965D01*
X184496Y179696D01*
X183765Y180257D01*
X182914Y180610D01*
X182000Y180730D01*
D02*
G37*
G36*
X283500Y149421D02*
X282968Y149351D01*
X282007Y148953D01*
X281181Y148319D01*
X280547Y147493D01*
X280149Y146532D01*
X280079Y146000D01*
X283500D01*
Y149421D01*
D02*
G37*
G36*
X284500D02*
Y146000D01*
X287921D01*
X287851Y146532D01*
X287453Y147493D01*
X286819Y148319D01*
X285993Y148953D01*
X285032Y149351D01*
X284500Y149421D01*
D02*
G37*
G36*
X200500Y193421D02*
Y190000D01*
X203921D01*
X203851Y190532D01*
X203453Y191493D01*
X202819Y192319D01*
X201993Y192953D01*
X201032Y193351D01*
X200500Y193421D01*
D02*
G37*
G36*
X175500Y195051D02*
X172277D01*
X172341Y194571D01*
X172719Y193657D01*
X173321Y192873D01*
X174106Y192270D01*
X175020Y191892D01*
X175500Y191829D01*
Y195051D01*
D02*
G37*
G36*
X230000Y193487D02*
X228968Y193351D01*
X228007Y192953D01*
X227181Y192319D01*
X226547Y191493D01*
X226149Y190532D01*
X226013Y189500D01*
X226149Y188468D01*
X226547Y187507D01*
X227181Y186681D01*
X228007Y186047D01*
X228968Y185649D01*
X230000Y185513D01*
X231032Y185649D01*
X231993Y186047D01*
X232819Y186681D01*
X233453Y187507D01*
X233851Y188468D01*
X233987Y189500D01*
X233851Y190532D01*
X233453Y191493D01*
X232819Y192319D01*
X231993Y192953D01*
X231032Y193351D01*
X230000Y193487D01*
D02*
G37*
G36*
Y203487D02*
X228968Y203351D01*
X228007Y202953D01*
X227181Y202319D01*
X226547Y201493D01*
X226149Y200532D01*
X226013Y199500D01*
X226149Y198468D01*
X226547Y197507D01*
X227181Y196681D01*
X228007Y196047D01*
X228968Y195649D01*
X230000Y195513D01*
X230656Y195599D01*
X236327Y189929D01*
X237071Y189432D01*
X237949Y189257D01*
X240526D01*
X240821Y188873D01*
X241606Y188270D01*
X242519Y187892D01*
X243500Y187763D01*
X244480Y187892D01*
X245394Y188270D01*
X246179Y188873D01*
X246474Y189257D01*
X248550D01*
X248783Y189023D01*
X249528Y188526D01*
X250406Y188352D01*
X253278D01*
X253681Y187827D01*
X254507Y187193D01*
X255468Y186795D01*
X256500Y186659D01*
X257532Y186795D01*
X258493Y187193D01*
X259319Y187827D01*
X259953Y188652D01*
X260351Y189614D01*
X260487Y190646D01*
X260351Y191677D01*
X259953Y192639D01*
X259319Y193465D01*
X258493Y194098D01*
X257532Y194497D01*
X256500Y194632D01*
X255468Y194497D01*
X254507Y194098D01*
X253681Y193465D01*
X253278Y192940D01*
X251356D01*
X251122Y193173D01*
X250378Y193671D01*
X249500Y193845D01*
X246474D01*
X246179Y194230D01*
X245394Y194832D01*
X244480Y195210D01*
X243500Y195340D01*
X242519Y195210D01*
X241606Y194832D01*
X240821Y194230D01*
X240526Y193845D01*
X238899D01*
X233900Y198844D01*
X233987Y199500D01*
X233851Y200532D01*
X233453Y201493D01*
X232819Y202319D01*
X231993Y202953D01*
X231032Y203351D01*
X230000Y203487D01*
D02*
G37*
%LPD*%
D10*
X141203Y112000D02*
G03*
X142407Y109093I4111J0D01*
G01*
X142407Y109093D02*
G03*
X139500Y110297I-2907J-2907D01*
G01*
X198796Y188296D02*
G03*
X195889Y189500I-2907J-2907D01*
G01*
D02*
G03*
X198796Y190704I0J4111D01*
G01*
X180435Y107935D02*
G03*
X177864Y109000I-2571J-2571D01*
G01*
D02*
G03*
X180435Y110065I0J3636D01*
G01*
X177506Y195551D02*
G03*
X178571Y192981I3636J0D01*
G01*
D02*
G03*
X176000Y194045I-2571J-2571D01*
G01*
X141203Y112000D02*
G03*
X142407Y109093I4111J0D01*
G01*
X142407Y109093D02*
G03*
X139500Y110297I-2907J-2907D01*
G01*
X198796Y188296D02*
G03*
X195889Y189500I-2907J-2907D01*
G01*
D02*
G03*
X198796Y190704I0J4111D01*
G01*
X180435Y107935D02*
G03*
X177864Y109000I-2571J-2571D01*
G01*
D02*
G03*
X180435Y110065I0J3636D01*
G01*
X177506Y195551D02*
G03*
X178571Y192981I3636J0D01*
G01*
D02*
G03*
X176000Y194045I-2571J-2571D01*
G01*
X243500Y191551D02*
X249500D01*
X250406Y190646D01*
X256500D01*
X127500Y195551D02*
X143500D01*
X230000Y209500D02*
X238500Y201000D01*
X271500D01*
X143500Y225551D02*
X159551Y209500D01*
X200000D01*
X196500Y128500D02*
X199000Y126000D01*
X234500D01*
X271500Y211000D02*
X277700D01*
Y160000D02*
Y211000D01*
X226700Y109000D02*
X277700Y160000D01*
X211500Y109000D02*
X226700D01*
X204700Y184200D02*
X230000Y209500D01*
X168200Y184200D02*
X204700D01*
X117000Y133000D02*
X168200Y184200D01*
X182000Y177200D02*
X203200Y156000D01*
X234500D01*
X230000Y199500D02*
X237949Y191551D01*
X243500D01*
X194100Y154300D02*
X198000Y150400D01*
X226031D01*
X238854Y239000D02*
X256500Y221354D01*
X201000Y239000D02*
X238854D01*
X160500Y195551D02*
X165949Y201000D01*
X187200D01*
X188700Y199500D01*
X200000D01*
X240251Y224800D02*
X243500Y221551D01*
X215300Y224800D02*
X240251D01*
X200000Y209500D02*
X215300Y224800D01*
X139500Y112000D02*
X142500Y109000D01*
X181500D01*
X176000Y195551D02*
X182051Y189500D01*
X200000D01*
D11*
Y219500D02*
D03*
X129500Y112000D02*
D03*
D15*
X243500Y191551D02*
D03*
Y221551D02*
D03*
X176000Y195551D02*
D03*
Y225551D02*
D03*
X160500D02*
D03*
Y195551D02*
D03*
X127500Y225551D02*
D03*
Y195551D02*
D03*
X143500D02*
D03*
Y225551D02*
D03*
X211500Y109000D02*
D03*
X181500D02*
D03*
X256500Y126000D02*
D03*
Y156000D02*
D03*
X234500D02*
D03*
Y126000D02*
D03*
D16*
X147000Y133000D02*
D03*
X117000D02*
D03*
D17*
X271500Y211000D02*
D03*
Y201000D02*
D03*
D18*
Y206000D02*
D03*
D19*
X256500Y221354D02*
D03*
X284000Y135500D02*
D03*
D20*
X256500Y190646D02*
D03*
X230000Y189500D02*
D03*
Y199500D02*
D03*
Y209500D02*
D03*
Y219500D02*
D03*
X200000Y189500D02*
D03*
Y199500D02*
D03*
Y209500D02*
D03*
X284000Y145500D02*
D03*
X139500Y112000D02*
D03*
D21*
X196500Y128500D02*
D03*
X182000Y177200D02*
D03*
X194100Y154300D02*
D03*
X226031Y150400D02*
D03*
X201000Y239000D02*
D03*
M02*
