%FSLAX25Y25*%
%MOIN*%
G70*
G01*
G75*
G04 Layer_Color=255*
%ADD10C,0.02500*%
%ADD11R,0.05906X0.05906*%
%ADD12O,0.08661X0.02362*%
%ADD13R,0.02362X0.01969*%
%ADD14C,0.01000*%
%ADD15C,0.05512*%
%ADD16C,0.04724*%
%ADD17O,0.07874X0.03937*%
%ADD18O,0.07874X0.03937*%
%ADD19R,0.05906X0.05906*%
%ADD20C,0.05906*%
%ADD21C,0.05000*%
D11*
X200000Y219500D02*
D03*
X129500Y112000D02*
D03*
D15*
X243500Y191551D02*
D03*
Y221551D02*
D03*
X176000Y195551D02*
D03*
Y225551D02*
D03*
X160500D02*
D03*
Y195551D02*
D03*
X127500Y225551D02*
D03*
Y195551D02*
D03*
X143500D02*
D03*
Y225551D02*
D03*
X211500Y109000D02*
D03*
X181500D02*
D03*
X256500Y126000D02*
D03*
Y156000D02*
D03*
X234500D02*
D03*
Y126000D02*
D03*
D16*
X147000Y133000D02*
D03*
X117000D02*
D03*
D17*
X271500Y211000D02*
D03*
Y201000D02*
D03*
D18*
Y206000D02*
D03*
D19*
X256500Y221354D02*
D03*
X284000Y135500D02*
D03*
D20*
X256500Y190646D02*
D03*
X230000Y189500D02*
D03*
Y199500D02*
D03*
Y209500D02*
D03*
Y219500D02*
D03*
X200000Y189500D02*
D03*
Y199500D02*
D03*
Y209500D02*
D03*
X284000Y145500D02*
D03*
X139500Y112000D02*
D03*
M02*
